<svg width="24" height="24" fill="none" xmlns="http://www.w3.org/2000/svg"><path d="M16.707 2.5A4.798 4.798 0 0 1 21.5 7.293v9.414a4.798 4.798 0 0 1-4.793 4.793H7.293A4.798 4.798 0 0 1 2.5 16.707V7.293A4.798 4.798 0 0 1 7.293 2.5h9.414Zm0 2.068H7.293a2.728 2.728 0 0 0-2.725 2.725v9.414a2.729 2.729 0 0 0 2.725 2.726h9.414a2.729 2.729 0 0 0 2.726-2.726V7.293a2.728 2.728 0 0 0-2.726-2.725ZM12 7.107A4.899 4.899 0 0 1 16.894 12 4.9 4.9 0 0 1 12 16.894 4.899 4.899 0 0 1 7.107 12 4.899 4.899 0 0 1 12 7.107Zm0 2.068A2.83 2.83 0 0 0 9.174 12 2.83 2.83 0 0 0 12 14.826 2.829 2.829 0 0 0 14.825 12 2.829 2.829 0 0 0 12 9.175Zm5.05-3.372a1.16 1.16 0 1 1-1.158 1.158c0-.639.52-1.158 1.159-1.158Z" fill="#5E626B"/></svg>