<svg width="139" height="32" fill="none" xmlns="http://www.w3.org/2000/svg"><path fill-rule="evenodd" clip-rule="evenodd" d="M13.009 31.662c1.225 0 2.227-.975 2.227-2.168V20.9c0-1.193-1.002-2.168-2.227-2.168-1.225 0-2.227.975-2.227 2.168v8.594c0 1.193 1.002 2.168 2.227 2.168Z" fill="#171C8F"/><path fill-rule="evenodd" clip-rule="evenodd" d="M4.493 27.797c.787.913 2.199 1.034 3.137.267l6.763-5.524a2.135 2.135 0 0 0 .274-3.054c-.787-.914-2.199-1.034-3.137-.268l-6.763 5.524a2.135 2.135 0 0 0-.274 3.055ZM19.906 0c-1.225 0-2.227.976-2.227 2.168v8.595c0 1.192 1.002 2.168 2.227 2.168 1.225 0 2.227-.976 2.227-2.168V2.168C22.133.976 21.13 0 19.906 0Z" fill="#171C8F"/><path fill-rule="evenodd" clip-rule="evenodd" d="M28.422 3.865c-.787-.913-2.2-1.034-3.138-.267l-6.762 5.524a2.135 2.135 0 0 0-.274 3.055c.787.914 2.199 1.034 3.137.267l6.763-5.524a2.135 2.135 0 0 0 .274-3.055ZM13.009 0c1.225 0 2.227.976 2.227 2.168v8.595c0 1.192-1.002 2.168-2.227 2.168-1.225 0-2.227-.976-2.227-2.168V2.168C10.782.976 11.784 0 13.009 0Z" fill="#171C8F"/><path fill-rule="evenodd" clip-rule="evenodd" d="M4.493 3.865c.787-.913 2.199-1.034 3.137-.267l6.763 5.524a2.135 2.135 0 0 1 .274 3.055c-.787.914-2.199 1.034-3.137.267L4.767 6.92a2.135 2.135 0 0 1-.274-3.055ZM.444 20.794c.548 1.067 1.893 1.502 2.988.969l7.894-3.847c1.095-.534 1.543-1.843.995-2.91-.549-1.066-1.893-1.502-2.988-.968l-7.895 3.847c-1.095.534-1.542 1.843-.994 2.91Z" fill="#171C8F"/><path fill-rule="evenodd" clip-rule="evenodd" d="M.182 11.65c-.486 1.094.035 2.377 1.16 2.851l8.1 3.415c1.124.474 2.442-.034 2.929-1.128.486-1.095-.035-2.378-1.159-2.851l-8.101-3.415c-1.124-.474-2.442.034-2.929 1.128ZM23.417 31.976c.396 0 .835-.042 1.317-.126.328-.05.758-.184 1.291-.402 1.086-.453 1.938-1.124 2.558-2.012.62-.889.93-1.869.93-2.942 0-1.106-.31-2.096-.93-2.967-.62-.889-1.472-1.56-2.557-2.012a6.406 6.406 0 0 0-.853-.327l-.852-.251-.878-.302a4.668 4.668 0 0 1-.775-.327c-.258-.168-.422-.377-.49-.629a1.346 1.346 0 0 1-.052-.276c0-.117.034-.26.103-.428l.052-.1a.73.73 0 0 1 .361-.352l.491-.176h.413l.233.05c.137.017.344.1.62.251.155.118.25.235.284.353.12.268.292.402.516.402h2.867c.241 0 .435-.059.581-.176a.579.579 0 0 0 .22-.478c0-.184-.035-.377-.103-.578a6.42 6.42 0 0 1-.13-.403 4.64 4.64 0 0 0-.852-1.408 6.9 6.9 0 0 0-1.317-1.081 5.266 5.266 0 0 0-1.705-.654 6.474 6.474 0 0 0-1.886-.176 5.548 5.548 0 0 0-1.73.402 5.328 5.328 0 0 0-1.472.906 4.914 4.914 0 0 0-1.11 1.358 4.318 4.318 0 0 0-.595 2.238c0 .452.069.905.207 1.358.155.57.43 1.114.826 1.634.396.52.887.939 1.473 1.257.447.252.886.453 1.317.604.292.117.714.26 1.265.427l.672.201.568.202c.276.15.457.268.542.352l.336.402.13.402.026.302-.027.276-.129.378-.335.402a1.085 1.085 0 0 1-.543.352c-.31.134-.602.201-.878.201-.413 0-.775-.1-1.085-.302-.172-.083-.362-.26-.568-.527-.138-.202-.224-.37-.258-.504-.087-.368-.293-.553-.62-.553h-2.092c-.396 0-.724.1-.982.302a.969.969 0 0 0-.387.805c0 .067.017.167.051.302.086.435.276.888.569 1.357.5.872 1.179 1.568 2.04 2.087a5.61 5.61 0 0 0 1.627.704 7.63 7.63 0 0 0 1.705.202Zm15.938-.327a7.81 7.81 0 0 0 2.686-.553 7.077 7.077 0 0 0 2.17-1.383 6.915 6.915 0 0 0 1.446-2.037 5.993 5.993 0 0 0 .49-2.465v-8.926c0-.453-.141-.817-.425-1.094-.284-.277-.659-.415-1.124-.415H43.54c-.465 0-.84.138-1.123.415-.284.277-.426.641-.426 1.094v8.952c0 .368-.06.695-.181.98-.104.252-.293.512-.569.78a2.473 2.473 0 0 1-.852.553c-.327.15-.672.226-1.033.226-.74 0-1.377-.234-1.911-.704-.552-.503-.827-1.098-.827-1.785v-9.002c0-.453-.142-.817-.426-1.094-.284-.277-.659-.415-1.124-.415h-1.033c-.465 0-.84.138-1.123.415-.284.277-.427.641-.427 1.094v9.027c0 .855.181 1.676.543 2.464.31.738.81 1.425 1.498 2.062a6.626 6.626 0 0 0 2.195 1.333c.775.319 1.636.478 2.583.478h.052Zm15.758.327c.396 0 .836-.042 1.318-.126.327-.05.757-.184 1.29-.402 1.086-.453 1.938-1.124 2.558-2.012.62-.889.93-1.869.93-2.942 0-1.106-.31-2.096-.93-2.967-.62-.889-1.472-1.56-2.557-2.012a6.406 6.406 0 0 0-.852-.327l-.852-.251-.879-.302a4.686 4.686 0 0 1-.775-.327c-.258-.168-.422-.377-.49-.629a1.346 1.346 0 0 1-.052-.276c0-.117.034-.26.103-.428l.052-.1a.73.73 0 0 1 .361-.352l.491-.176h.413l.233.05c.138.017.344.1.62.251.155.118.25.235.284.353.12.268.293.402.516.402h2.867c.242 0 .435-.059.582-.176a.58.58 0 0 0 .22-.478c0-.184-.035-.377-.104-.578a6.491 6.491 0 0 1-.13-.403 4.633 4.633 0 0 0-.852-1.408 6.891 6.891 0 0 0-1.317-1.081 5.266 5.266 0 0 0-1.705-.654 6.474 6.474 0 0 0-1.885-.176 5.547 5.547 0 0 0-1.73.402 5.327 5.327 0 0 0-1.473.906 4.914 4.914 0 0 0-1.11 1.358 4.318 4.318 0 0 0-.595 2.238c0 .452.07.905.207 1.358.155.57.43 1.114.827 1.634.396.52.886.939 1.472 1.257.448.252.887.453 1.317.604.293.117.715.26 1.266.427l.671.201.568.202c.276.15.457.268.543.352l.336.402.129.402.026.302-.026.276-.13.378-.335.402a1.086 1.086 0 0 1-.543.352c-.31.134-.602.201-.878.201-.413 0-.775-.1-1.085-.302-.172-.083-.361-.26-.568-.527-.137-.202-.223-.37-.258-.504-.086-.368-.293-.553-.62-.553H50.49c-.396 0-.723.1-.982.302a.969.969 0 0 0-.387.805c0 .067.017.167.052.302.086.435.275.888.568 1.357.5.872 1.18 1.568 2.04 2.087a5.61 5.61 0 0 0 1.627.704 7.63 7.63 0 0 0 1.705.202ZM68.32 18.699a3.5 3.5 0 0 1 1.278.289c.405.176.758.406 1.06.691a3.062 3.062 0 0 1 .943 2.213 2.994 2.994 0 0 1-.943 2.213 3.633 3.633 0 0 1-1.06.692 3.5 3.5 0 0 1-1.278.289v-6.387Zm7.429 3.193c0-.972-.19-1.877-.569-2.715a7.261 7.261 0 0 0-1.601-2.239 7.548 7.548 0 0 0-2.35-1.534 8.302 8.302 0 0 0-2.92-.603h-2.582c-.465 0-.84.138-1.124.415-.284.277-.426.641-.426 1.094v13.83c0 .453.142.817.426 1.094.284.277.659.415 1.124.415h1.214c.413 0 .745-.122.994-.365.25-.243.375-.574.375-.993v-1.333c1.085-.034 2.058-.226 2.919-.578a7.538 7.538 0 0 0 2.35-1.534 7.258 7.258 0 0 0 1.602-2.238c.378-.805.568-1.71.568-2.716Zm11.894 8.776c.12.302.314.54.58.717.268.176.556.264.866.264h1.136c.517 0 .913-.113 1.188-.34.276-.226.414-.54.414-.943 0-.184-.043-.419-.13-.703l-4.778-13.83a1.423 1.423 0 0 0-.555-.755 1.571 1.571 0 0 0-.917-.277h-1.73a1.53 1.53 0 0 0-.892.277 1.43 1.43 0 0 0-.555.729l-5.037 13.83a2.057 2.057 0 0 0-.154.73c0 .402.142.716.426.942.284.227.684.34 1.2.34h1.137a1.55 1.55 0 0 0 1.446-.955l.905-2.289h4.571l.879 2.263Zm-3.138-9.027 1.24 3.068-2.583.025 1.343-3.093Zm14.207-2.892a4.452 4.452 0 0 1 2.324.742c.311.21.547.452.711.73.163.276.245.573.245.892 0 .318-.082.62-.245.905-.164.285-.4.537-.711.754-.309.218-.662.39-1.058.516a4.746 4.746 0 0 1-1.266.213V18.75Zm3.745 12.22c.138.202.327.366.568.491.241.126.491.189.749.189h1.602c.482 0 .852-.084 1.11-.252a.793.793 0 0 0 .388-.704c0-.318-.129-.662-.388-1.03l-2.66-4.024c.758-.587 1.334-1.257 1.731-2.012a5.626 5.626 0 0 0 .594-2.514c0-.872-.19-1.677-.569-2.414-.378-.721-.912-1.375-1.601-1.961a7.194 7.194 0 0 0-2.351-1.359 9.564 9.564 0 0 0-2.918-.527h-2.583c-.465 0-.84.137-1.123.414-.285.277-.427.642-.427 1.094v13.78c0 .453.142.817.427 1.094.284.277.658.415 1.123.415h1.033c.465 0 .84-.138 1.124-.415.284-.277.426-.641.426-1.094V27.4l1.317-.101 2.428 3.67Zm13.323 1.007c.396 0 .835-.042 1.317-.126.327-.05.757-.184 1.291-.402 1.085-.453 1.938-1.124 2.557-2.012.62-.889.93-1.869.93-2.942 0-1.106-.31-2.096-.93-2.967-.619-.889-1.472-1.56-2.557-2.012a6.39 6.39 0 0 0-.852-.327l-.852-.251-.879-.302a4.707 4.707 0 0 1-.775-.327c-.258-.168-.421-.377-.49-.629a1.323 1.323 0 0 1-.052-.276c0-.117.035-.26.104-.428l.051-.1a.728.728 0 0 1 .362-.352l.491-.176h.413l.232.05c.138.017.345.1.62.251.155.118.25.235.284.353.121.268.293.402.517.402h2.867c.241 0 .435-.059.581-.176a.58.58 0 0 0 .22-.478c0-.184-.035-.377-.104-.578a6.395 6.395 0 0 1-.129-.403 4.637 4.637 0 0 0-.852-1.408 6.888 6.888 0 0 0-1.318-1.081 5.26 5.26 0 0 0-1.704-.654 6.48 6.48 0 0 0-1.886-.176 5.54 5.54 0 0 0-1.73.402 5.338 5.338 0 0 0-1.473.906 4.916 4.916 0 0 0-1.11 1.358 4.318 4.318 0 0 0-.594 2.238c0 .452.069.905.207 1.358.154.57.43 1.114.826 1.634.396.52.887.939 1.472 1.257.448.252.887.453 1.318.604.292.117.714.26 1.265.427l.672.201.568.202c.275.15.456.268.542.352l.336.402.129.402.026.302-.026.276-.129.378-.336.402a1.09 1.09 0 0 1-.542.352c-.31.134-.603.201-.878.201-.414 0-.775-.1-1.085-.302-.172-.083-.362-.26-.568-.527-.138-.202-.224-.37-.259-.504-.086-.368-.292-.553-.62-.553h-2.092c-.396 0-.723.1-.981.302a.967.967 0 0 0-.388.805c0 .067.018.167.052.302.086.435.275.888.568 1.357a5.72 5.72 0 0 0 2.041 2.087 5.608 5.608 0 0 0 1.627.704 7.626 7.626 0 0 0 1.705.202Zm18.927-1.308c.12.302.314.54.581.717.267.176.555.264.865.264h1.136c.517 0 .913-.113 1.189-.34.275-.226.413-.54.413-.943 0-.184-.043-.419-.129-.703l-4.779-13.83a1.42 1.42 0 0 0-.555-.755 1.573 1.573 0 0 0-.917-.277h-1.73c-.327 0-.624.092-.892.277a1.432 1.432 0 0 0-.555.729l-5.036 13.83a2.035 2.035 0 0 0-.155.73c0 .402.141.716.426.942.284.227.684.34 1.201.34h1.136c.328 0 .62-.088.878-.264.259-.176.448-.407.569-.692l.904-2.288h4.571l.879 2.263Zm-3.103-9.027 1.24 3.068-2.583.025 1.343-3.093Z" fill="#171C8F"/></svg>