<svg xmlns="http://www.w3.org/2000/svg">
  <symbol id="user-icon" viewBox="0 0 22 27">
    <path d="M19.333 25.34H2.667c-.92 0-1.667-.747-1.667-1.667v-.557a5.81 5.81 0 0 1 3.77-5.44 17.75 17.75 0 0 1 12.46 0 5.81 5.81 0 0 1 3.77 5.44v.557c0 .92-.746 1.667-1.667 1.667ZM8.46 12.368a5.561 5.561 0 0 0 7.979-3.784l.093-.435a5.913 5.913 0 0 0-1.046-4.777l-.15-.2a5.413 5.413 0 0 0-8.67 0l-.15.2a5.913 5.913 0 0 0-1.046 4.777l.093.436a5.561 5.561 0 0 0 2.897 3.783h0Z" stroke-width="2" fill="none" fill-rule="evenodd" stroke-linecap="round" stroke-linejoin="round"/>
  </symbol>
  <symbol id="search-icon" viewBox="0 0 22 23">
    <path d="m13.121 13.14 1.223 1.222m0 1.581 4.747 4.748a1.118 1.118 0 1 0 1.582-1.58l-4.747-4.749a1.118 1.118 0 0 0-1.582 1.581h0Zm-13.1-9.677A7.105 7.105 0 1 1 14.97 9.944 7.105 7.105 0 0 1 1.244 6.266Z" stroke-width="2" fill="none" fill-rule="evenodd" stroke-linecap="round" stroke-linejoin="round"/>
  </symbol>
  <symbol id="cart-icon" viewBox="0 0 22 21">
    <g stroke-width="2" fill="none" fill-rule="evenodd" stroke-linecap="round" stroke-linejoin="round">
      <path d="M6.484 12.613h12.258L21 3.58H4.226m3.21 12.84L3.58 1H1"/>
      <path d="M6.614 16.645a1.676 1.676 0 1 1 1.676 2.903 1.676 1.676 0 0 1-1.676-2.903h0Zm1.295-.161h9.73m-.38.16a1.676 1.676 0 1 1 1.676 2.904 1.676 1.676 0 0 1-1.676-2.903h0Z"/>
    </g>
  </symbol>
  <symbol id="facebook-icon" viewBox="0 0 24 24">
    <path fill-rule="evenodd" clip-rule="evenodd" d="M16.027 11.982h-2.598V21.5H9.492v-9.518H7.62V8.637h1.872V6.472c0-1.548.736-3.972 3.972-3.972l2.916.012V5.76h-2.116c-.347 0-.835.174-.835.912V8.64h2.942l-.344 3.342Z"/>
  </symbol>
  <symbol id="instagram-icon" viewBox="0 0 24 24">
    <path d="M16.707 2.5A4.798 4.798 0 0 1 21.5 7.293v9.414a4.798 4.798 0 0 1-4.793 4.793H7.293A4.798 4.798 0 0 1 2.5 16.707V7.293A4.798 4.798 0 0 1 7.293 2.5h9.414Zm0 2.068H7.293a2.728 2.728 0 0 0-2.725 2.725v9.414a2.729 2.729 0 0 0 2.725 2.726h9.414a2.729 2.729 0 0 0 2.726-2.726V7.293a2.728 2.728 0 0 0-2.726-2.725ZM12 7.107A4.899 4.899 0 0 1 16.894 12 4.9 4.9 0 0 1 12 16.894 4.899 4.899 0 0 1 7.107 12 4.899 4.899 0 0 1 12 7.107Zm0 2.068A2.83 2.83 0 0 0 9.174 12 2.83 2.83 0 0 0 12 14.826 2.829 2.829 0 0 0 14.825 12 2.829 2.829 0 0 0 12 9.175Zm5.05-3.372a1.16 1.16 0 1 1-1.158 1.158c0-.639.52-1.158 1.159-1.158Z"/>
  </symbol>
  <symbol id="burger-icon" viewBox="0 0 25 22">
    <path d="M0 1.417h25M0 10.792h25M0 20.167h25" stroke-width="2" fill="none" fill-rule="evenodd"/>
  </symbol>
  <symbol id="close-icon" viewBox="0 0 27 27">
    <path d="M26 26 1 1m0 25L26 1" stroke-width="2" fill="none" fill-rule="evenodd"/>
  </symbol>
</svg>